<svg width="22" height="22" viewBox="0 0 22 22" fill="none" xmlns="http://www.w3.org/2000/svg">
<g clip-path="url(#clip0_317_304)">
<path d="M11.0009 1.375C4.92512 1.375 0.000898633 5.37539 0.000898633 10.3125C0.000898633 12.3578 0.855977 14.2312 2.27395 15.7395C1.63371 17.4324 0.30168 18.8676 0.280195 18.8848C-0.00339824 19.1855 -0.080742 19.6238 0.0825393 20.002C0.24582 20.3801 0.619649 20.625 1.03215 20.625C3.67473 20.625 5.75871 19.5207 7.0091 18.6355C8.2509 19.0266 9.59152 19.25 11.0009 19.25C17.0767 19.25 22.0009 15.2496 22.0009 10.3125C22.0009 5.37539 17.0767 1.375 11.0009 1.375ZM11.0009 17.1875C9.85363 17.1875 8.71926 17.0113 7.63215 16.6676L6.65676 16.3582L5.81887 16.9512C5.20441 17.3852 4.36223 17.8707 3.34816 18.1973C3.66184 17.6773 3.96691 17.093 4.20324 16.4699L4.65871 15.2625L3.77355 14.3258C2.99582 13.4965 2.0634 12.1258 2.0634 10.3125C2.0634 6.52266 6.07238 3.4375 11.0009 3.4375C15.9294 3.4375 19.9384 6.52266 19.9384 10.3125C19.9384 14.1023 15.9294 17.1875 11.0009 17.1875Z" fill="#665930"/>
</g>
<defs>
<clipPath id="clip0_317_304">
<rect width="22" height="22" fill="white"/>
</clipPath>
</defs>
</svg>
