<svg width="34" height="34" viewBox="0 0 34 34" fill="none" xmlns="http://www.w3.org/2000/svg">
<path d="M17.0007 2.83301C9.18915 2.83301 2.83398 9.18817 2.83398 16.9997C2.83398 24.8112 9.18915 31.1663 17.0007 31.1663C24.8122 31.1663 31.1673 24.8112 31.1673 16.9997C31.1673 9.18817 24.8122 2.83301 17.0007 2.83301ZM17.0007 28.333C10.7517 28.333 5.66732 23.2486 5.66732 16.9997C5.66732 10.7508 10.7517 5.66634 17.0007 5.66634C23.2496 5.66634 28.334 10.7508 28.334 16.9997C28.334 23.2486 23.2496 28.333 17.0007 28.333Z" fill="#665930"/>
<path d="M11.334 22.6663L19.8212 19.833L22.6673 11.333L14.1673 14.1663L11.334 22.6663Z" fill="#665930"/>
</svg>
