<svg width="30" height="30" viewBox="0 0 30 30" fill="none" xmlns="http://www.w3.org/2000/svg">
<path d="M26.25 19.6875C26.25 19.4389 26.1512 19.2004 25.9754 19.0246C25.7996 18.8488 25.5611 18.75 25.3125 18.75H19.6875C19.4389 18.75 19.2004 18.8488 19.0246 19.0246C18.8488 19.2004 18.75 19.4389 18.75 19.6875C18.75 19.9361 18.8488 20.1746 19.0246 20.3504C19.2004 20.5262 19.4389 20.625 19.6875 20.625H25.3125C25.5611 20.625 25.7996 20.5262 25.9754 20.3504C26.1512 20.1746 26.25 19.9361 26.25 19.6875ZM26.25 14.0625C26.25 13.8139 26.1512 13.5754 25.9754 13.3996C25.7996 13.2238 25.5611 13.125 25.3125 13.125H12.1875C11.9389 13.125 11.7004 13.2238 11.5246 13.3996C11.3488 13.5754 11.25 13.8139 11.25 14.0625C11.25 14.3111 11.3488 14.5496 11.5246 14.7254C11.7004 14.9012 11.9389 15 12.1875 15H25.3125C25.5611 15 25.7996 14.9012 25.9754 14.7254C26.1512 14.5496 26.25 14.3111 26.25 14.0625ZM26.25 8.4375C26.25 8.18886 26.1512 7.9504 25.9754 7.77459C25.7996 7.59877 25.5611 7.5 25.3125 7.5H4.6875C4.43886 7.5 4.2004 7.59877 4.02459 7.77459C3.84877 7.9504 3.75 8.18886 3.75 8.4375C3.75 8.68614 3.84877 8.9246 4.02459 9.10041C4.2004 9.27623 4.43886 9.375 4.6875 9.375H25.3125C25.5611 9.375 25.7996 9.27623 25.9754 9.10041C26.1512 8.9246 26.25 8.68614 26.25 8.4375Z" fill="#A8A278"/>
</svg>
