<svg width="31" height="31" viewBox="0 0 31 31" fill="none" xmlns="http://www.w3.org/2000/svg">
<path d="M28.4173 25.8329V15.7244C28.4174 15.0211 28.2739 14.3252 27.9956 13.6793C27.7173 13.0334 27.3101 12.4512 26.7989 11.9682L17.2754 2.96785C16.7958 2.51438 16.1607 2.26172 15.5007 2.26172C14.8406 2.26172 14.2055 2.51438 13.7259 2.96785L4.20244 11.9682C3.69123 12.4512 3.28401 13.0334 3.00571 13.6793C2.72742 14.3252 2.58391 15.0211 2.58398 15.7244V25.8329C2.58398 26.5181 2.85616 27.1752 3.34063 27.6596C3.82509 28.1441 4.48218 28.4163 5.16732 28.4163H25.834C26.5191 28.4163 27.1762 28.1441 27.6607 27.6596C28.1451 27.1752 28.4173 26.5181 28.4173 25.8329Z" stroke="#665930" stroke-width="2" stroke-linecap="round" stroke-linejoin="round"/>
</svg>
