<svg width="34" height="34" viewBox="0 0 34 34" fill="none" xmlns="http://www.w3.org/2000/svg">
<path d="M26.9167 2.84747H8.5C6.7915 2.84747 4.25 3.97939 4.25 7.09747V26.9308C4.25 30.0489 6.7915 31.1808 8.5 31.1808H29.75V28.3475H8.517C7.8625 28.3305 7.08333 28.0712 7.08333 26.9308C7.08333 26.7877 7.09608 26.6602 7.11733 26.5441C7.276 25.7295 7.94325 25.5283 8.51558 25.5141H28.3333C28.3588 25.5141 28.3772 25.5014 28.4027 25.5H29.75V5.68081C29.75 4.11822 28.4792 2.84747 26.9167 2.84747ZM26.9167 22.6808H7.08333V7.09747C7.08333 5.95564 7.8625 5.69781 8.5 5.68081H18.4167V15.5975L21.25 14.1808L24.0833 15.5975V5.68081H26.9167V22.6808Z" fill="#665930"/>
</svg>
