<svg width="30" height="30" viewBox="0 0 30 30" fill="none" xmlns="http://www.w3.org/2000/svg">
<g clip-path="url(#clip0_249_966)">
<path d="M14.999 28.567C15.5239 28.5549 16.0277 28.3575 16.4211 28.0098C16.8146 27.6621 17.0724 27.1865 17.149 26.667H12.7656C12.8444 27.2006 13.1142 27.6874 13.525 28.0369C13.9359 28.3864 14.4596 28.5748 14.999 28.567Z" fill="#665930"/>
<path d="M27.091 23.192C26.2874 22.4756 25.5839 21.6544 24.9993 20.7503C24.3612 19.5024 23.9787 18.1397 23.8743 16.742V12.6253C23.871 12.1253 23.8264 11.6264 23.741 11.1337C23.0851 11.0025 22.4547 10.7662 21.8743 10.4337C22.0956 11.146 22.208 11.8877 22.2077 12.6337V16.7503C22.3098 18.4553 22.7788 20.1182 23.5827 21.6253C24.158 22.537 24.8407 23.3763 25.616 24.1253H4.27435C5.04969 23.3763 5.73235 22.537 6.30768 21.6253C7.11153 20.1182 7.58054 18.4553 7.68268 16.7503V12.6253C7.6783 11.6609 7.86419 10.7051 8.22972 9.81259C8.59524 8.92011 9.13323 8.10849 9.81286 7.42421C10.4925 6.73993 11.3004 6.19643 12.1904 5.82484C13.0804 5.45324 14.0349 5.26084 14.9993 5.25866C16.4108 5.25979 17.7906 5.6772 18.966 6.45866C18.8364 5.98281 18.7637 5.49329 18.7493 5.00033V4.47533C17.8792 4.04729 16.9445 3.76573 15.9827 3.64199V2.59199C15.9827 2.29694 15.8655 2.01397 15.6568 1.80534C15.4482 1.5967 15.1652 1.47949 14.8702 1.47949C14.5751 1.47949 14.2922 1.5967 14.0835 1.80534C13.8749 2.01397 13.7577 2.29694 13.7577 2.59199V3.68366C11.6041 3.98745 9.63316 5.06011 8.2087 6.7036C6.78424 8.34709 6.00246 10.4504 6.00768 12.6253V16.742C5.90331 18.1397 5.52083 19.5024 4.88268 20.7503C4.30842 21.6523 3.61618 22.4734 2.82435 23.192C2.73546 23.2701 2.66422 23.3662 2.61536 23.474C2.56651 23.5817 2.54117 23.6987 2.54102 23.817V24.9503C2.54102 25.1713 2.62881 25.3833 2.78509 25.5396C2.94137 25.6959 3.15334 25.7837 3.37435 25.7837H26.541C26.762 25.7837 26.974 25.6959 27.1303 25.5396C27.2866 25.3833 27.3743 25.1713 27.3743 24.9503V23.817C27.3742 23.6987 27.3489 23.5817 27.3 23.474C27.2512 23.3662 27.1799 23.2701 27.091 23.192Z" fill="#665930"/>
<path d="M25.0007 9.16634C27.3018 9.16634 29.1673 7.30086 29.1673 4.99967C29.1673 2.69849 27.3018 0.833008 25.0007 0.833008C22.6995 0.833008 20.834 2.69849 20.834 4.99967C20.834 7.30086 22.6995 9.16634 25.0007 9.16634Z" fill="#665930"/>
</g>
<defs>
<clipPath id="clip0_249_966">
<rect width="30" height="30" fill="white"/>
</clipPath>
</defs>
</svg>
