<svg width="242" height="30" viewBox="0 0 242 30" fill="none" xmlns="http://www.w3.org/2000/svg">
<path d="M10.208 22L5.728 14.216H3.292V22H0.1V2.54H6.82C8.31333 2.54 9.57333 2.80133 10.6 3.324C11.6453 3.84667 12.42 4.54667 12.924 5.424C13.4467 6.30133 13.708 7.28133 13.708 8.364C13.708 9.63333 13.3347 10.7907 12.588 11.836C11.86 12.8627 10.7307 13.5627 9.2 13.936L14.016 22H10.208ZM3.292 11.668H6.82C8.01467 11.668 8.91067 11.3693 9.508 10.772C10.124 10.1747 10.432 9.372 10.432 8.364C10.432 7.356 10.1333 6.572 9.536 6.012C8.93867 5.43333 8.03333 5.144 6.82 5.144H3.292V11.668ZM33.3314 13.908C33.3314 14.4867 33.2941 15.0093 33.2194 15.476H21.4314C21.5247 16.708 21.9821 17.6973 22.8034 18.444C23.6247 19.1907 24.6327 19.564 25.8274 19.564C27.5447 19.564 28.7581 18.8453 29.4674 17.408H32.9114C32.4447 18.8267 31.5954 19.9933 30.3634 20.908C29.1501 21.804 27.6381 22.252 25.8274 22.252C24.3527 22.252 23.0274 21.9253 21.8514 21.272C20.6941 20.6 19.7794 19.6667 19.1074 18.472C18.4541 17.2587 18.1274 15.8587 18.1274 14.272C18.1274 12.6853 18.4447 11.2947 19.0794 10.1C19.7327 8.88667 20.6381 7.95333 21.7954 7.3C22.9714 6.64667 24.3154 6.32 25.8274 6.32C27.2834 6.32 28.5807 6.63733 29.7194 7.272C30.8581 7.90667 31.7447 8.80267 32.3794 9.96C33.0141 11.0987 33.3314 12.4147 33.3314 13.908ZM29.9994 12.9C29.9807 11.724 29.5607 10.7813 28.7394 10.072C27.9181 9.36267 26.9007 9.008 25.6874 9.008C24.5861 9.008 23.6434 9.36267 22.8594 10.072C22.0754 10.7627 21.6087 11.7053 21.4594 12.9H29.9994ZM36.8087 14.216C36.8087 12.6667 37.126 11.2947 37.7607 10.1C38.414 8.90533 39.2913 7.98133 40.3927 7.328C41.5127 6.656 42.7447 6.32 44.0887 6.32C45.302 6.32 46.3567 6.56267 47.2527 7.048C48.1673 7.51467 48.8953 8.10267 49.4367 8.812V6.572H52.6567V22H49.4367V19.704C48.8953 20.432 48.158 21.0387 47.2247 21.524C46.2913 22.0093 45.2273 22.252 44.0327 22.252C42.7073 22.252 41.494 21.916 40.3927 21.244C39.2913 20.5533 38.414 19.6013 37.7607 18.388C37.126 17.156 36.8087 15.7653 36.8087 14.216ZM49.4367 14.272C49.4367 13.208 49.2127 12.284 48.7647 11.5C48.3353 10.716 47.766 10.1187 47.0567 9.708C46.3473 9.29733 45.582 9.092 44.7607 9.092C43.9393 9.092 43.174 9.29733 42.4647 9.708C41.7553 10.1 41.1767 10.688 40.7287 11.472C40.2993 12.2373 40.0847 13.152 40.0847 14.216C40.0847 15.28 40.2993 16.2133 40.7287 17.016C41.1767 17.8187 41.7553 18.4347 42.4647 18.864C43.1927 19.2747 43.958 19.48 44.7607 19.48C45.582 19.48 46.3473 19.2747 47.0567 18.864C47.766 18.4533 48.3353 17.856 48.7647 17.072C49.2127 16.2693 49.4367 15.336 49.4367 14.272ZM57.1852 14.216C57.1852 12.6667 57.5026 11.2947 58.1372 10.1C58.7906 8.90533 59.6679 7.98133 60.7692 7.328C61.8892 6.656 63.1306 6.32 64.4932 6.32C65.5012 6.32 66.4906 6.544 67.4612 6.992C68.4506 7.42133 69.2346 8 69.8132 8.728V1.28H73.0332V22H69.8132V19.676C69.2906 20.4227 68.5626 21.0387 67.6292 21.524C66.7146 22.0093 65.6599 22.252 64.4652 22.252C63.1212 22.252 61.8892 21.916 60.7692 21.244C59.6679 20.5533 58.7906 19.6013 58.1372 18.388C57.5026 17.156 57.1852 15.7653 57.1852 14.216ZM69.8132 14.272C69.8132 13.208 69.5892 12.284 69.1412 11.5C68.7119 10.716 68.1426 10.1187 67.4332 9.708C66.7239 9.29733 65.9586 9.092 65.1372 9.092C64.3159 9.092 63.5506 9.29733 62.8412 9.708C62.1319 10.1 61.5532 10.688 61.1052 11.472C60.6759 12.2373 60.4612 13.152 60.4612 14.216C60.4612 15.28 60.6759 16.2133 61.1052 17.016C61.5532 17.8187 62.1319 18.4347 62.8412 18.864C63.5692 19.2747 64.3346 19.48 65.1372 19.48C65.9586 19.48 66.7239 19.2747 67.4332 18.864C68.1426 18.4533 68.7119 17.856 69.1412 17.072C69.5892 16.2693 69.8132 15.336 69.8132 14.272Z" fill="url(#paint0_linear_149_870)"/>
<path d="M88.5378 22L84.2258 14.384H82.3778V22H78.4578V2.456H85.7938C87.3058 2.456 88.5938 2.72667 89.6578 3.268C90.7218 3.79067 91.5151 4.50933 92.0378 5.424C92.5791 6.32 92.8498 7.328 92.8498 8.448C92.8498 9.736 92.4764 10.9027 91.7298 11.948C90.9831 12.9747 89.8724 13.684 88.3978 14.076L93.0738 22H88.5378ZM82.3778 11.444H85.6538C86.7178 11.444 87.5111 11.192 88.0338 10.688C88.5564 10.1653 88.8178 9.44667 88.8178 8.532C88.8178 7.636 88.5564 6.94533 88.0338 6.46C87.5111 5.956 86.7178 5.704 85.6538 5.704H82.3778V11.444ZM112.215 13.908C112.215 14.468 112.178 14.972 112.103 15.42H100.763C100.857 16.54 101.249 17.4173 101.939 18.052C102.63 18.6867 103.479 19.004 104.487 19.004C105.943 19.004 106.979 18.3787 107.595 17.128H111.823C111.375 18.6213 110.517 19.8533 109.247 20.824C107.978 21.776 106.419 22.252 104.571 22.252C103.078 22.252 101.734 21.9253 100.539 21.272C99.3633 20.6 98.4393 19.6573 97.7673 18.444C97.1139 17.2307 96.7873 15.8307 96.7873 14.244C96.7873 12.6387 97.1139 11.2293 97.7673 10.016C98.4206 8.80267 99.3353 7.86933 100.511 7.216C101.687 6.56267 103.041 6.236 104.571 6.236C106.046 6.236 107.362 6.55333 108.519 7.188C109.695 7.82267 110.601 8.728 111.235 9.904C111.889 11.0613 112.215 12.396 112.215 13.908ZM108.155 12.788C108.137 11.78 107.773 10.9773 107.063 10.38C106.354 9.764 105.486 9.456 104.459 9.456C103.489 9.456 102.667 9.75467 101.995 10.352C101.342 10.9307 100.941 11.7427 100.791 12.788H108.155ZM120.397 8.728C120.901 8.01867 121.591 7.43067 122.469 6.964C123.365 6.47867 124.382 6.236 125.521 6.236C126.846 6.236 128.041 6.56267 129.105 7.216C130.187 7.86933 131.037 8.80267 131.653 10.016C132.287 11.2107 132.605 12.6013 132.605 14.188C132.605 15.7747 132.287 17.184 131.653 18.416C131.037 19.6293 130.187 20.572 129.105 21.244C128.041 21.916 126.846 22.252 125.521 22.252C124.382 22.252 123.374 22.0187 122.497 21.552C121.638 21.0853 120.938 20.4973 120.397 19.788V29.392H116.477V6.488H120.397V8.728ZM128.601 14.188C128.601 13.2547 128.405 12.452 128.013 11.78C127.639 11.0893 127.135 10.5667 126.501 10.212C125.885 9.85733 125.213 9.68 124.485 9.68C123.775 9.68 123.103 9.86667 122.469 10.24C121.853 10.5947 121.349 11.1173 120.957 11.808C120.583 12.4987 120.397 13.3107 120.397 14.244C120.397 15.1773 120.583 15.9893 120.957 16.68C121.349 17.3707 121.853 17.9027 122.469 18.276C123.103 18.6307 123.775 18.808 124.485 18.808C125.213 18.808 125.885 18.6213 126.501 18.248C127.135 17.8747 127.639 17.3427 128.013 16.652C128.405 15.9613 128.601 15.14 128.601 14.188ZM143.741 22.252C142.248 22.252 140.904 21.9253 139.709 21.272C138.514 20.6 137.572 19.6573 136.881 18.444C136.209 17.2307 135.873 15.8307 135.873 14.244C135.873 12.6573 136.218 11.2573 136.909 10.044C137.618 8.83067 138.58 7.89733 139.793 7.244C141.006 6.572 142.36 6.236 143.853 6.236C145.346 6.236 146.7 6.572 147.913 7.244C149.126 7.89733 150.078 8.83067 150.769 10.044C151.478 11.2573 151.833 12.6573 151.833 14.244C151.833 15.8307 151.469 17.2307 150.741 18.444C150.032 19.6573 149.061 20.6 147.829 21.272C146.616 21.9253 145.253 22.252 143.741 22.252ZM143.741 18.836C144.45 18.836 145.113 18.668 145.729 18.332C146.364 17.9773 146.868 17.4547 147.241 16.764C147.614 16.0733 147.801 15.2333 147.801 14.244C147.801 12.7693 147.409 11.64 146.625 10.856C145.86 10.0533 144.917 9.652 143.797 9.652C142.677 9.652 141.734 10.0533 140.969 10.856C140.222 11.64 139.849 12.7693 139.849 14.244C139.849 15.7187 140.213 16.8573 140.941 17.66C141.688 18.444 142.621 18.836 143.741 18.836ZM162.045 22.252C160.775 22.252 159.637 22.028 158.629 21.58C157.621 21.1133 156.818 20.488 156.221 19.704C155.642 18.92 155.325 18.052 155.269 17.1H159.217C159.291 17.6973 159.581 18.192 160.085 18.584C160.607 18.976 161.251 19.172 162.017 19.172C162.763 19.172 163.342 19.0227 163.753 18.724C164.182 18.4253 164.397 18.0427 164.397 17.576C164.397 17.072 164.135 16.6987 163.613 16.456C163.109 16.1947 162.297 15.9147 161.177 15.616C160.019 15.336 159.067 15.0467 158.321 14.748C157.593 14.4493 156.958 13.992 156.417 13.376C155.894 12.76 155.633 11.9293 155.633 10.884C155.633 10.0253 155.875 9.24133 156.361 8.532C156.865 7.82267 157.574 7.26267 158.489 6.852C159.422 6.44133 160.514 6.236 161.765 6.236C163.613 6.236 165.087 6.70267 166.189 7.636C167.29 8.55067 167.897 9.792 168.009 11.36H164.257C164.201 10.744 163.939 10.2587 163.473 9.904C163.025 9.53067 162.418 9.344 161.653 9.344C160.943 9.344 160.393 9.47467 160.001 9.736C159.627 9.99733 159.441 10.3613 159.441 10.828C159.441 11.3507 159.702 11.752 160.225 12.032C160.747 12.2933 161.559 12.564 162.661 12.844C163.781 13.124 164.705 13.4133 165.433 13.712C166.161 14.0107 166.786 14.4773 167.309 15.112C167.85 15.728 168.13 16.5493 168.149 17.576C168.149 18.472 167.897 19.2747 167.393 19.984C166.907 20.6933 166.198 21.2533 165.265 21.664C164.35 22.056 163.277 22.252 162.045 22.252ZM174.754 4.64C174.064 4.64 173.485 4.42533 173.018 3.996C172.57 3.548 172.346 2.99733 172.346 2.344C172.346 1.69067 172.57 1.14933 173.018 0.719999C173.485 0.271999 174.064 0.0479989 174.754 0.0479989C175.445 0.0479989 176.014 0.271999 176.462 0.719999C176.929 1.14933 177.162 1.69067 177.162 2.344C177.162 2.99733 176.929 3.548 176.462 3.996C176.014 4.42533 175.445 4.64 174.754 4.64ZM176.686 6.488V22H172.766V6.488H176.686ZM186.523 9.708V17.212C186.523 17.7347 186.645 18.1173 186.887 18.36C187.149 18.584 187.578 18.696 188.175 18.696H189.995V22H187.531C184.227 22 182.575 20.3947 182.575 17.184V9.708H180.727V6.488H182.575V2.652H186.523V6.488H189.995V9.708H186.523ZM201.103 22.252C199.609 22.252 198.265 21.9253 197.071 21.272C195.876 20.6 194.933 19.6573 194.243 18.444C193.571 17.2307 193.235 15.8307 193.235 14.244C193.235 12.6573 193.58 11.2573 194.271 10.044C194.98 8.83067 195.941 7.89733 197.155 7.244C198.368 6.572 199.721 6.236 201.215 6.236C202.708 6.236 204.061 6.572 205.275 7.244C206.488 7.89733 207.44 8.83067 208.131 10.044C208.84 11.2573 209.195 12.6573 209.195 14.244C209.195 15.8307 208.831 17.2307 208.103 18.444C207.393 19.6573 206.423 20.6 205.191 21.272C203.977 21.9253 202.615 22.252 201.103 22.252ZM201.103 18.836C201.812 18.836 202.475 18.668 203.091 18.332C203.725 17.9773 204.229 17.4547 204.603 16.764C204.976 16.0733 205.163 15.2333 205.163 14.244C205.163 12.7693 204.771 11.64 203.987 10.856C203.221 10.0533 202.279 9.652 201.159 9.652C200.039 9.652 199.096 10.0533 198.331 10.856C197.584 11.64 197.211 12.7693 197.211 14.244C197.211 15.7187 197.575 16.8573 198.303 17.66C199.049 18.444 199.983 18.836 201.103 18.836ZM217.39 8.896C217.894 8.07467 218.548 7.43067 219.35 6.964C220.172 6.49733 221.105 6.264 222.15 6.264V10.38H221.114C219.882 10.38 218.949 10.6693 218.314 11.248C217.698 11.8267 217.39 12.8347 217.39 14.272V22H213.47V6.488H217.39V8.896ZM241.031 6.488L231.427 29.336H227.255L230.615 21.608L224.399 6.488H228.795L232.799 17.324L236.859 6.488H241.031Z" fill="black"/>
<defs>
<linearGradient id="paint0_linear_149_870" x1="120" y1="-13" x2="120" y2="37" gradientUnits="userSpaceOnUse">
<stop stop-color="#A8A278"/>
<stop offset="1" stop-color="#665930"/>
</linearGradient>
</defs>
</svg>
