<svg width="32" height="33" viewBox="0 0 32 33" fill="none" xmlns="http://www.w3.org/2000/svg">
<path d="M28.9004 20.2572L26.8535 18.5108C26.9504 17.9182 27.0004 17.3132 27.0004 16.7082C27.0004 16.1032 26.9504 15.4982 26.8535 14.9056L28.9004 13.1592C29.0548 13.0273 29.1653 12.8516 29.2172 12.6555C29.2691 12.4594 29.26 12.2522 29.191 12.0614L29.1629 11.9803C28.5994 10.4086 27.7556 8.95162 26.6723 7.67972L26.616 7.61423C26.4846 7.46002 26.3094 7.34917 26.1136 7.29628C25.9178 7.24339 25.7106 7.25095 25.5191 7.31796L22.9785 8.21925C22.041 7.45206 20.9941 6.84705 19.8629 6.42291L19.3723 3.77206C19.3353 3.5726 19.2383 3.3891 19.0943 3.24594C18.9503 3.10277 18.766 3.00673 18.566 2.97057L18.4816 2.95497C16.8535 2.66182 15.141 2.66182 13.5129 2.95497L13.4285 2.97057C13.2285 3.00673 13.0443 3.10277 12.9003 3.24594C12.7562 3.3891 12.6593 3.5726 12.6223 3.77206L12.1285 6.43538C11.0063 6.85961 9.96123 7.4643 9.03477 8.22549L6.4754 7.31796C6.28404 7.25042 6.07662 7.24259 5.88069 7.29551C5.68477 7.34843 5.50962 7.45959 5.37852 7.61423L5.32227 7.67972C4.24023 8.95252 3.39657 10.4093 2.83165 11.9803L2.80352 12.0614C2.6629 12.4513 2.77852 12.8879 3.09415 13.1592L5.16602 14.9243C5.06915 15.5106 5.02227 16.1094 5.02227 16.7051C5.02227 17.3039 5.06915 17.9027 5.16602 18.4858L3.09415 20.251C2.93976 20.3829 2.82926 20.5586 2.77735 20.7547C2.72543 20.9508 2.73456 21.158 2.80352 21.3488L2.83165 21.4298C3.39727 23.0016 4.23477 24.4518 5.32227 25.7305L5.37852 25.796C5.50994 25.9502 5.6851 26.061 5.8809 26.1139C6.07671 26.1668 6.28398 26.1592 6.4754 26.0922L9.03477 25.1847C9.96602 25.9488 11.0066 26.5538 12.1285 26.9748L12.6223 29.6381C12.6593 29.8376 12.7562 30.0211 12.9003 30.1642C13.0443 30.3074 13.2285 30.4035 13.4285 30.4396L13.5129 30.4552C15.156 30.7499 16.8386 30.7499 18.4816 30.4552L18.566 30.4396C18.766 30.4035 18.9503 30.3074 19.0943 30.1642C19.2383 30.0211 19.3353 29.8376 19.3723 29.6381L19.8629 26.9873C20.9937 26.5643 22.0465 25.9573 22.9785 25.1909L25.5191 26.0922C25.7105 26.1598 25.9179 26.1676 26.1138 26.1147C26.3098 26.0618 26.4849 25.9506 26.616 25.796L26.6723 25.7305C27.7598 24.4487 28.5973 23.0016 29.1629 21.4298L29.191 21.3488C29.3316 20.9652 29.216 20.5286 28.9004 20.2572ZM24.6348 15.2736C24.7129 15.7445 24.7535 16.2279 24.7535 16.7113C24.7535 17.1947 24.7129 17.6781 24.6348 18.149L24.4285 19.3996L26.7629 21.3924C26.409 22.206 25.9623 22.9762 25.4316 23.6877L22.5316 22.6617L21.5504 23.4663C20.8035 24.0776 19.9723 24.5578 19.0723 24.8947L17.8816 25.3406L17.3223 28.3657C16.4397 28.4655 15.5486 28.4655 14.666 28.3657L14.1066 25.3344L12.9254 24.8822C12.0348 24.5454 11.2066 24.0651 10.466 23.457L9.48477 22.6492L6.56602 23.6846C6.03477 22.9705 5.59102 22.2002 5.23477 21.3893L7.59415 19.3778L7.39102 18.1303C7.31602 17.6656 7.2754 17.1854 7.2754 16.7113C7.2754 16.2342 7.3129 15.757 7.39102 15.2923L7.59415 14.0449L5.23477 12.0334C5.5879 11.2194 6.03477 10.4522 6.56602 9.73803L9.48477 10.7734L10.466 9.96569C11.2066 9.35756 12.0348 8.87729 12.9254 8.54047L14.1098 8.0945L14.6691 5.06318C15.5473 4.96338 16.4441 4.96338 17.3254 5.06318L17.8848 8.08827L19.0754 8.53423C19.9723 8.87105 20.8066 9.35132 21.5535 9.96257L22.5348 10.7672L25.4348 9.74115C25.966 10.4553 26.4098 11.2256 26.766 12.0365L24.4316 14.0293L24.6348 15.2736ZM16.0004 10.9106C12.9629 10.9106 10.5004 13.3681 10.5004 16.3995C10.5004 19.4308 12.9629 21.8883 16.0004 21.8883C19.0379 21.8883 21.5004 19.4308 21.5004 16.3995C21.5004 13.3681 19.0379 10.9106 16.0004 10.9106ZM18.4754 18.8694C18.1508 19.1943 17.765 19.452 17.3402 19.6275C16.9155 19.8031 16.4601 19.8931 16.0004 19.8924C15.066 19.8924 14.1879 19.5275 13.5254 18.8694C13.1998 18.5455 12.9417 18.1605 12.7658 17.7366C12.5899 17.3127 12.4997 16.8583 12.5004 16.3995C12.5004 15.467 12.866 14.5906 13.5254 13.9295C14.1879 13.2683 15.066 12.9066 16.0004 12.9066C16.9348 12.9066 17.8129 13.2683 18.4754 13.9295C18.8009 14.2535 19.0591 14.6385 19.235 15.0623C19.4109 15.4862 19.5011 15.9407 19.5004 16.3995C19.5004 17.3319 19.1348 18.2083 18.4754 18.8694Z" fill="#665930"/>
</svg>
