<svg width="33" height="32" viewBox="0 0 33 32" fill="none" xmlns="http://www.w3.org/2000/svg">
<path d="M28.9147 19.5227L26.8668 17.7754C26.9637 17.1826 27.0137 16.5772 27.0137 15.9719C27.0137 15.3666 26.9637 14.7613 26.8668 14.1684L28.9147 12.4211C29.0692 12.2891 29.1797 12.1134 29.2317 11.9172C29.2836 11.721 29.2745 11.5136 29.2055 11.3228L29.1773 11.2416C28.6135 9.66912 27.7693 8.21138 26.6854 6.93883L26.6292 6.87331C26.4977 6.71902 26.3224 6.60811 26.1265 6.55519C25.9306 6.50228 25.7232 6.50984 25.5317 6.57689L22.9898 7.47863C22.0518 6.71106 21.0044 6.10573 19.8726 5.68138L19.3817 3.02918C19.3447 2.82961 19.2477 2.64602 19.1036 2.50279C18.9595 2.35955 18.7752 2.26346 18.5751 2.22728L18.4906 2.21168C16.8617 1.91837 15.1483 1.91837 13.5194 2.21168L13.4349 2.22728C13.2348 2.26346 13.0505 2.35955 12.9064 2.50279C12.7623 2.64602 12.6653 2.82961 12.6283 3.02918L12.1343 5.69386C11.0115 6.1183 9.96588 6.7233 9.03895 7.48487L6.47827 6.57689C6.28682 6.50931 6.07929 6.50147 5.88327 6.55442C5.68724 6.60737 5.51201 6.71859 5.38084 6.87331L5.32456 6.93883C4.24197 8.21228 3.39788 9.66978 2.83267 11.2416L2.80453 11.3228C2.66383 11.7128 2.77952 12.1496 3.0953 12.4211L5.16823 14.1871C5.07131 14.7737 5.02441 15.3728 5.02441 15.9688C5.02441 16.5679 5.07131 17.167 5.16823 17.7505L3.0953 19.5165C2.94083 19.6485 2.83028 19.8242 2.77834 20.0204C2.7264 20.2166 2.73553 20.4239 2.80453 20.6148L2.83267 20.696C3.39858 22.2686 4.23651 23.7195 5.32456 24.9988L5.38084 25.0643C5.51233 25.2186 5.68757 25.3295 5.88348 25.3824C6.07938 25.4353 6.28676 25.4278 6.47827 25.3607L9.03895 24.4527C9.97068 25.2172 11.0118 25.8225 12.1343 26.2437L12.6283 28.9084C12.6653 29.108 12.7623 29.2916 12.9064 29.4348C13.0505 29.578 13.2348 29.6741 13.4349 29.7103L13.5194 29.7259C15.1633 30.0208 16.8467 30.0208 18.4906 29.7259L18.5751 29.7103C18.7752 29.6741 18.9595 29.578 19.1036 29.4348C19.2477 29.2916 19.3447 29.108 19.3817 28.9084L19.8726 26.2562C21.004 25.833 22.0573 25.2257 22.9898 24.459L25.5317 25.3607C25.7232 25.4283 25.9307 25.4361 26.1267 25.3832C26.3227 25.3302 26.498 25.219 26.6292 25.0643L26.6854 24.9988C27.7735 23.7163 28.6114 22.2686 29.1773 20.696L29.2055 20.6148C29.3462 20.231 29.2305 19.7942 28.9147 19.5227ZM24.6469 14.5366C24.7251 15.0078 24.7657 15.4914 24.7657 15.975C24.7657 16.4587 24.7251 16.9423 24.6469 17.4135L24.4405 18.6647L26.7761 20.6585C26.422 21.4725 25.9751 22.2431 25.4442 22.955L22.5427 21.9284L21.5609 22.7335C20.8137 23.345 19.982 23.8256 19.0816 24.1625L17.8903 24.6087L17.3307 27.6354C16.4476 27.7352 15.5561 27.7352 14.6731 27.6354L14.1134 24.6025L12.9316 24.1501C12.0405 23.8131 11.2119 23.3326 10.4709 22.7241L9.48918 21.916L6.56894 22.9519C6.03742 22.2374 5.59345 21.4667 5.23702 20.6554L7.59759 18.6428L7.39436 17.3947C7.31933 16.9298 7.27868 16.4493 7.27868 15.975C7.27868 15.4976 7.3162 15.0202 7.39436 14.5553L7.59759 13.3072L5.23702 11.2947C5.59032 10.4803 6.03742 9.71272 6.56894 8.99819L9.48918 10.0341L10.4709 9.22597C11.2119 8.61752 12.0405 8.137 12.9316 7.80002L14.1165 7.35382L14.6762 4.32096C15.5548 4.22111 16.4521 4.22111 17.3338 4.32096L17.8935 7.34758L19.0847 7.79378C19.982 8.13076 20.8168 8.61128 21.5641 9.22285L22.5458 10.0279L25.4473 9.00131C25.9788 9.71584 26.4228 10.4865 26.7792 11.2978L24.4437 13.2916L24.6469 14.5366ZM16.0081 10.1714C12.9691 10.1714 10.5053 12.6301 10.5053 15.663C10.5053 18.6959 12.9691 21.1546 16.0081 21.1546C19.0472 21.1546 21.5109 18.6959 21.5109 15.663C21.5109 12.6301 19.0472 10.1714 16.0081 10.1714ZM18.4844 18.1342C18.1596 18.4593 17.7736 18.7171 17.3486 18.8927C16.9237 19.0683 16.4681 19.1584 16.0081 19.1577C15.0733 19.1577 14.1947 18.7926 13.5319 18.1342C13.2061 17.8101 12.9479 17.4249 12.7719 17.0008C12.5959 16.5767 12.5056 16.1221 12.5063 15.663C12.5063 14.7301 12.8722 13.8533 13.5319 13.1918C14.1947 12.5303 15.0733 12.1683 16.0081 12.1683C16.943 12.1683 17.8215 12.5303 18.4844 13.1918C18.8101 13.5159 19.0684 13.9011 19.2444 14.3252C19.4204 14.7493 19.5106 15.204 19.5099 15.663C19.5099 16.596 19.1441 17.4728 18.4844 18.1342Z" fill="#A8A278"/>
</svg>
